<svg width="341" height="367" viewBox="0 0 341 367" fill="none" xmlns="http://www.w3.org/2000/svg">
<path d="M62.732 52.66C61.2595 54.7539 59.6548 56.7518 57.9278 58.6413C62.5258 63.1045 66.8048 65.1945 69.1753 63.8223C71.5513 62.4528 71.8785 57.7035 70.3138 51.4913C67.968 52.0138 65.4188 52.4098 62.732 52.66ZM59.1295 52.8993C57.0441 52.9856 54.9559 52.9856 52.8705 52.8993C53.9073 54.2523 54.955 55.5063 56 56.6503C57.045 55.5063 58.09 54.2523 59.1295 52.8993ZM72.9895 31.1908C80.3183 33.2918 85.1033 36.7843 85.1033 41C85.1033 45.2158 80.3183 48.7083 72.9895 50.8093C74.832 58.2068 74.2023 64.0973 70.553 66.2038C66.901 68.313 61.4835 65.915 56 60.6213C50.5165 65.915 45.099 68.313 41.447 66.2038C37.7978 64.0973 37.1653 58.2068 39.0105 50.8093C31.6818 48.7083 26.8968 45.2158 26.8968 41C26.8968 36.7843 31.6818 33.2918 39.0105 31.1908C37.168 23.7933 37.7978 17.9028 41.447 15.7963C45.099 13.687 50.5165 16.085 56 21.3788C61.4835 16.085 66.901 13.687 70.553 15.7963C74.2023 17.9028 74.8348 23.7933 72.9895 31.1908ZM70.3138 30.5088C71.8813 24.2938 71.5513 19.5473 69.178 18.1778C66.8048 16.8055 62.5258 18.8955 57.9305 23.3588C59.5558 25.127 61.1728 27.1373 62.732 29.34C65.4215 29.5875 67.968 29.9835 70.3138 30.5088ZM41.6863 51.4913C40.1188 57.7063 40.4488 62.4528 42.822 63.8223C45.1953 65.1945 49.4743 63.1045 54.0695 58.6413C52.3434 56.7517 50.7397 54.7539 49.268 52.66C46.7185 52.4321 44.1861 52.0417 41.6863 51.4913ZM52.8705 29.1008C54.9559 29.0144 57.0441 29.0144 59.1295 29.1008C58.1409 27.8068 57.0968 26.5562 56 25.3525C54.955 26.4965 53.91 27.7505 52.8705 29.1035V29.1008ZM49.268 29.34C50.7414 27.246 52.347 25.2482 54.075 23.3588C49.4743 18.8955 45.1925 16.8055 42.8248 18.1778C40.4488 19.5473 40.1215 24.2965 41.6863 30.5088C44.032 29.9863 46.5813 29.5903 49.268 29.34ZM61.2085 50.02C63.1661 47.1473 64.9062 44.1322 66.4143 41C64.9062 37.8678 63.1661 34.8528 61.2085 31.98C57.741 31.7204 54.259 31.7204 50.7915 31.98C48.8339 34.8528 47.0938 37.8678 45.5858 41C47.0938 44.1322 48.8339 47.1473 50.7915 50.02C54.259 50.2796 57.741 50.2796 61.2085 50.02ZM64.7395 49.6598C66.4308 49.4398 68.0395 49.1565 69.552 48.8238C69.0574 47.2721 68.4959 45.7426 67.869 44.2395C66.901 46.0877 65.8569 47.8951 64.7395 49.657V49.6598ZM47.2605 32.3375C45.5693 32.5575 43.9605 32.8408 42.448 33.1735C42.9155 34.6475 43.4765 36.182 44.131 37.7578C45.099 35.9096 46.1431 34.1022 47.2605 32.3403V32.3375ZM42.448 48.821C43.9605 49.1538 45.5693 49.4343 47.2605 49.657C46.1431 47.8951 45.099 46.0877 44.131 44.2395C43.4765 45.8125 42.9155 47.347 42.448 48.821ZM39.7585 48.1473C40.4763 45.8538 41.4085 43.4503 42.536 40.9973C41.4085 38.5443 40.4763 36.1408 39.7585 33.8473C33.593 35.599 29.6468 38.2583 29.6468 40.9973C29.6468 43.7363 33.593 46.3955 39.7585 48.1473ZM69.552 33.1735C68.0395 32.8408 66.4308 32.5603 64.7395 32.3375C65.8569 34.0994 66.901 35.9068 67.869 37.755C68.5235 36.182 69.0845 34.6475 69.552 33.1735ZM72.2415 33.8473C71.5238 36.1408 70.5915 38.5443 69.464 40.9973C70.5915 43.4503 71.5238 45.8538 72.2415 48.1473C78.407 46.3955 82.3533 43.7363 82.3533 40.9973C82.3533 38.2583 78.407 35.599 72.2415 33.8473ZM56 46.17C55.3211 46.17 54.6488 46.0363 54.0215 45.7765C53.3943 45.5167 52.8243 45.1358 52.3443 44.6558C51.8642 44.1757 51.4834 43.6057 51.2236 42.9785C50.9637 42.3512 50.83 41.6789 50.83 41C50.83 40.3211 50.9637 39.6488 51.2236 39.0215C51.4834 38.3943 51.8642 37.8244 52.3443 37.3443C52.8243 36.8642 53.3943 36.4834 54.0215 36.2236C54.6488 35.9637 55.3211 35.83 56 35.83C57.3712 35.83 58.6862 36.3747 59.6558 37.3443C60.6253 38.3138 61.17 39.6288 61.17 41C61.17 42.3712 60.6253 43.6862 59.6558 44.6558C58.6862 45.6253 57.3712 46.17 56 46.17Z" fill="#28ADD8"/>
<path d="M176 149.333C161.267 149.333 149.333 161.267 149.333 176C149.33 181.598 151.09 187.055 154.363 191.596C157.636 196.138 162.256 199.534 167.568 201.301C168.901 201.533 169.4 200.733 169.4 200.032C169.4 199.4 169.365 197.301 169.365 195.067C162.667 196.301 160.933 193.435 160.4 191.933C160.099 191.165 158.8 188.8 157.667 188.165C156.733 187.667 155.4 186.432 157.632 186.4C159.733 186.365 161.232 188.333 161.733 189.133C164.133 193.165 167.968 192.032 169.499 191.333C169.733 189.6 170.432 188.435 171.2 187.768C165.267 187.101 159.067 184.8 159.067 174.6C159.067 171.699 160.099 169.301 161.8 167.432C161.533 166.765 160.6 164.032 162.067 160.365C162.067 160.365 164.299 159.667 169.4 163.101C171.571 162.499 173.814 162.196 176.067 162.2C178.333 162.2 180.6 162.499 182.733 163.099C187.832 159.632 190.067 160.368 190.067 160.368C191.533 164.035 190.6 166.768 190.333 167.435C192.032 169.301 193.067 171.667 193.067 174.6C193.067 184.835 186.835 187.101 180.901 187.768C181.867 188.6 182.701 190.2 182.701 192.701C182.701 196.267 182.667 199.133 182.667 200.035C182.667 200.733 183.168 201.565 184.501 201.299C189.795 199.511 194.394 196.109 197.653 191.571C200.912 187.033 202.665 181.587 202.667 176C202.667 161.267 190.733 149.333 176 149.333Z" fill="#FEFBF3"/>
<path d="M72 299H135V362H72V299ZM129.839 346.974C129.38 344.1 127.508 341.685 121.956 339.433C120.024 338.527 117.877 337.897 117.239 336.44C117 335.574 116.964 335.102 117.118 334.59C117.512 332.894 119.52 332.385 121.095 332.857C122.119 333.172 123.064 333.96 123.657 335.22C126.372 333.445 126.372 333.445 128.264 332.267C127.556 331.164 127.204 330.689 126.726 330.219C125.072 328.368 122.87 327.424 119.287 327.505L117.436 327.739C115.662 328.172 113.971 329.117 112.947 330.377C109.955 333.765 110.818 339.672 114.441 342.113C118.024 344.791 123.264 345.378 123.933 347.901C124.563 350.972 121.649 351.957 118.772 351.602C116.643 351.13 115.465 350.064 114.165 348.095L109.362 350.854C109.913 352.114 110.543 352.663 111.488 353.765C116.055 358.375 127.474 358.139 129.524 351.13C129.6 350.894 130.154 349.279 129.719 346.799L129.839 346.974ZM106.259 327.956H100.358C100.358 333.044 100.334 338.099 100.334 343.194C100.334 346.429 100.5 349.397 99.972 350.311C99.1058 352.12 96.8745 351.889 95.8612 351.571C94.8218 351.056 94.2941 350.348 93.6825 349.327C93.5171 349.051 93.3938 348.812 93.3491 348.812L88.5585 351.765C89.3591 353.419 90.5273 354.842 92.034 355.747C94.2784 357.086 97.2945 357.519 100.452 356.81C102.508 356.217 104.28 354.996 105.206 353.106C106.545 350.665 106.262 347.673 106.248 344.323C106.28 338.932 106.248 333.537 106.248 328.103L106.259 327.956Z" fill="#FCFF54"/>
<g clip-path="url(#clip0)">
<path d="M231.996 367C231.273 367 230.553 366.811 229.921 366.444L223.315 362.536C222.33 361.985 222.811 361.789 223.135 361.674C224.451 361.217 224.717 361.112 226.123 360.315C226.269 360.232 226.463 360.264 226.614 360.354L231.69 363.366C231.874 363.467 232.133 363.467 232.302 363.366L252.09 351.945C252.275 351.84 252.392 351.628 252.392 351.41V328.572C252.392 328.35 252.273 328.14 252.084 328.028L232.304 316.616C232.122 316.51 231.879 316.51 231.694 316.616L211.919 328.03C211.728 328.14 211.606 328.356 211.606 328.572V351.41C211.606 351.628 211.728 351.835 211.919 351.938L217.339 355.07C220.28 356.542 222.082 354.81 222.082 353.068V330.521C222.082 330.201 222.339 329.952 222.658 329.952H225.167C225.48 329.952 225.741 330.204 225.741 330.521V353.068C225.741 356.994 223.603 359.244 219.882 359.244C218.739 359.244 217.836 359.244 215.323 358.005L210.13 355.019C208.848 354.278 208.056 352.892 208.056 351.41V328.572C208.056 327.09 208.85 325.704 210.13 324.966L229.919 313.531C231.172 312.822 232.835 312.822 234.077 313.531L253.863 324.966C255.146 325.706 255.942 327.09 255.942 328.572V351.41C255.942 352.892 255.146 354.274 253.863 355.019L234.077 366.444C233.447 366.811 232.729 367 231.996 367ZM247.973 344.484C247.973 340.209 245.084 339.071 239.002 338.268C232.857 337.455 232.232 337.035 232.232 335.597C232.232 334.409 232.761 332.823 237.312 332.823C241.378 332.823 242.877 333.698 243.493 336.438C243.547 336.697 243.783 336.886 244.049 336.886H246.616C246.776 336.886 246.927 336.816 247.035 336.704C247.143 336.582 247.201 336.427 247.185 336.263C246.787 331.542 243.651 329.342 237.312 329.342C231.669 329.342 228.303 331.722 228.303 335.716C228.303 340.047 231.651 341.244 237.067 341.78C243.547 342.414 244.049 343.362 244.049 344.635C244.049 346.847 242.274 347.79 238.104 347.79C232.869 347.79 231.717 346.476 231.33 343.87C231.285 343.591 231.046 343.386 230.76 343.386H228.202C227.885 343.386 227.631 343.638 227.631 343.956C227.631 347.29 229.444 351.264 238.104 351.264C244.377 351.266 247.973 348.798 247.973 344.484Z" fill="#3FFF0F"/>
</g>
<path d="M195.038 0C194.641 0 194.341 0.002925 194.231 0.015075C194.115 0.027 193.746 0.062325 193.413 0.088875C185.744 0.7803 178.56 4.91805 174.009 11.2777C171.476 14.814 169.855 18.8249 169.243 23.0737C169.027 24.5565 169 24.9946 169 27.0054C169 29.0162 169.027 29.4543 169.243 30.9375C170.71 41.076 177.926 49.5943 187.713 52.7501C189.465 53.3151 191.313 53.7003 193.414 53.9325C194.232 54.0225 197.768 54.0225 198.586 53.9325C202.213 53.5313 205.285 52.6343 208.315 51.0878C208.779 50.8502 208.869 50.787 208.806 50.7339C208.764 50.7026 206.784 48.0479 204.409 44.8389L200.091 39.0069L194.68 31.0007C191.703 26.5988 189.254 22.9997 189.233 22.9997C189.212 22.9939 189.191 26.5518 189.18 30.895C189.165 38.5004 189.159 38.8064 189.064 38.986C188.927 39.2447 188.821 39.35 188.6 39.4661C188.431 39.5503 188.283 39.5662 187.486 39.5662H186.572L186.33 39.4132C186.179 39.319 186.057 39.1859 185.976 39.028L185.865 38.7905L185.877 28.2087L185.892 17.6215L186.055 17.4157C186.14 17.3048 186.32 17.1625 186.446 17.0939C186.662 16.9882 186.747 16.9776 187.66 16.9776C188.737 16.9776 188.917 17.0197 189.196 17.3257C189.276 17.4105 192.205 21.8228 195.71 27.1375C199.259 32.5168 202.809 37.8948 206.362 43.2713L210.638 49.7473L210.854 49.6049C212.77 48.3592 214.797 46.5858 216.402 44.7388C219.817 40.8172 222.018 36.0358 222.757 30.9373C222.973 29.4543 223 29.0158 223 27.0054C223 24.9946 222.973 24.5565 222.757 23.0733C221.29 12.9348 214.074 4.41652 204.288 1.26067C202.561 0.7011 200.725 0.315675 198.666 0.083475C198.286 0.043875 196.228 0.001125 195.038 0.000225L195.038 0ZM204.192 16.2383C204.973 16.2383 205.11 16.2502 205.285 16.344C205.538 16.4704 205.744 16.7134 205.818 16.9666C205.86 17.1038 205.871 20.0385 205.86 26.6515L205.845 36.1408L204.172 33.5759L202.493 31.0109V24.1124C202.493 19.6529 202.514 17.1457 202.546 17.0244C202.63 16.729 202.815 16.4965 203.068 16.3595C203.285 16.2484 203.364 16.238 204.193 16.238L204.192 16.2383Z" fill="#FEFBF3"/>
<path d="M3.375 155C1.506 155 0 156.506 0 158.375V223.625C0 225.494 1.506 227 3.375 227H68.625C70.494 227 72 225.494 72 223.625V158.375C72 156.506 70.494 155 68.625 155H3.375ZM55.464 184.25C57.3 184.25 58.926 184.361 60.345 184.583C61.6834 184.784 62.9967 185.125 64.263 185.603V192.977C63.6552 192.557 63.0094 192.194 62.334 191.894C61.6375 191.581 60.9185 191.32 60.183 191.114C58.7898 190.726 57.3513 190.524 55.905 190.514C55.005 190.514 54.186 190.598 53.448 190.772C52.7902 190.913 52.1593 191.158 51.579 191.498C51.069 191.81 50.679 192.185 50.4 192.62C50.1194 193.058 49.9734 193.569 49.98 194.09C49.98 194.678 50.139 195.209 50.448 195.677C50.76 196.145 51.204 196.589 51.777 197.009C52.35 197.429 53.046 197.837 53.865 198.239C54.684 198.644 55.611 199.061 56.643 199.487C58.053 200.078 59.319 200.708 60.441 201.371C61.563 202.037 62.526 202.79 63.33 203.63C64.134 204.467 64.746 205.424 65.172 206.501C65.598 207.578 65.814 208.829 65.814 210.26C65.814 212.231 65.439 213.89 64.695 215.228C63.9681 216.548 62.9249 217.666 61.659 218.483C60.2946 219.348 58.7823 219.954 57.198 220.271C55.5 220.631 53.709 220.811 51.828 220.811C49.9767 220.819 48.1287 220.654 46.308 220.319C44.7328 220.047 43.2051 219.548 41.772 218.84V210.95C44.4833 213.257 47.9228 214.532 51.483 214.55C52.482 214.55 53.355 214.46 54.099 214.28C54.846 214.1 55.467 213.848 55.968 213.53C56.466 213.206 56.838 212.828 57.087 212.39C57.3622 211.88 57.4874 211.303 57.4481 210.724C57.4088 210.146 57.2067 209.591 56.865 209.123C56.4193 208.533 55.8741 208.026 55.254 207.623C54.485 207.113 53.6752 206.668 52.833 206.291C51.8347 205.835 50.8275 205.399 49.812 204.983C47.058 203.834 45.006 202.427 43.653 200.768C42.303 199.109 41.625 197.102 41.625 194.753C41.625 192.911 41.994 191.33 42.732 190.007C43.47 188.684 44.472 187.595 45.744 186.74C47.0894 185.852 48.583 185.213 50.154 184.853C51.8939 184.443 53.6764 184.24 55.464 184.25ZM10.125 184.814H38.814V191.312H28.518V220.25H20.367V191.312H10.125V184.814Z" fill="#096BFF"/>
<g clip-path="url(#clip1)">
<path d="M338.769 73.7909L325.801 67.5512C325.068 67.1983 324.244 67.082 323.442 67.2184C322.64 67.3548 321.901 67.7371 321.326 68.3125L296.493 90.9662L285.678 82.7552C285.19 82.3852 284.588 82.1975 283.976 82.2248C283.365 82.2522 282.782 82.4927 282.329 82.9049L278.858 86.0601C278.588 86.306 278.372 86.6055 278.224 86.9397C278.076 87.2739 277.999 87.6353 277.999 88.0007C277.999 88.3662 278.075 88.7277 278.222 89.062C278.37 89.3964 278.586 89.6963 278.856 89.9425L288.235 98.5L278.856 107.057C278.586 107.304 278.37 107.604 278.222 107.938C278.075 108.272 277.999 108.634 277.999 108.999C277.999 109.365 278.076 109.726 278.224 110.06C278.372 110.394 278.588 110.694 278.858 110.94L282.331 114.092C282.784 114.505 283.367 114.745 283.979 114.773C284.591 114.8 285.193 114.612 285.681 114.242L296.496 106.031L321.328 128.685C321.903 129.26 322.642 129.643 323.443 129.779C324.245 129.916 325.069 129.799 325.801 129.446L338.774 123.206C339.441 122.884 340.004 122.38 340.398 121.753C340.792 121.125 341.001 120.399 341 119.657V77.3399C341 76.5982 340.791 75.8716 340.396 75.2437C340.001 74.6159 339.437 74.1123 338.769 73.7909ZM325.26 112.801L306.418 98.5L325.26 84.199V112.801Z" fill="#0971AC"/>
</g>
<path d="M292.862 252.92H290.187L288.728 260.422H291.102C292.677 260.422 293.851 260.125 294.621 259.533C295.392 258.938 295.91 257.949 296.179 256.561C296.44 255.229 296.321 254.288 295.828 253.741C295.332 253.195 294.346 252.92 292.862 252.92ZM307 240.116C288.224 240.116 273 248.123 273 258C273 267.877 288.224 275.887 307 275.887C325.776 275.887 341 267.877 341 258C341 248.123 325.776 240.116 307 240.116ZM297.763 261.227C297.024 261.935 296.134 262.468 295.165 262.788C294.213 263.094 292.998 263.253 291.524 263.253H288.178L287.252 268.016H283.347L286.832 250.092H294.341C296.599 250.092 298.245 250.684 299.282 251.872C300.319 253.056 300.631 254.71 300.217 256.835C300.059 257.676 299.767 258.487 299.353 259.235C298.948 259.958 298.418 260.624 297.763 261.227ZM309.165 263.253L310.703 255.323C310.882 254.422 310.814 253.804 310.51 253.478C310.207 253.149 309.558 252.985 308.564 252.985H305.47L303.475 263.256H299.599L303.084 245.329H306.957L306.031 250.095H309.482C311.655 250.095 313.151 250.475 313.976 251.231C314.8 251.988 315.047 253.214 314.721 254.912L313.1 263.253H309.165ZM330.689 256.835C330.534 257.677 330.242 258.488 329.825 259.235C329.42 259.958 328.89 260.624 328.236 261.227C327.496 261.933 326.609 262.467 325.638 262.788C324.686 263.094 323.47 263.253 321.994 263.253H318.651L317.724 268.019H313.82L317.305 250.095H324.81C327.068 250.095 328.715 250.687 329.752 251.874C330.789 253.056 331.103 254.71 330.689 256.835ZM323.337 252.92H320.665L319.203 260.422H321.577C323.156 260.422 324.329 260.125 325.096 259.533C325.867 258.938 326.386 257.949 326.658 256.561C326.918 255.229 326.796 254.288 326.303 253.741C325.81 253.195 324.819 252.92 323.337 252.92Z" fill="#094E8D"/>
<defs>
<clipPath id="clip0">
<rect width="54" height="54" fill="white" transform="translate(205 313)"/>
</clipPath>
<clipPath id="clip1">
<rect width="63" height="63" fill="white" transform="translate(278 67)"/>
</clipPath>
</defs>
</svg>
